<?xml version="1.0" encoding="UTF-8" standalone="no"?>
<!-- Created with Inkscape (http://www.inkscape.org/) -->

<svg
   version="1.1"
   id="svg1"
   width="728"
   height="720"
   viewBox="0 0 728 720"
   sodipodi:docname="Rock logo texto negro.svg"
   inkscape:version="1.3.2 (091e20e, 2023-11-25, custom)"
   xml:space="preserve"
   xmlns:inkscape="http://www.inkscape.org/namespaces/inkscape"
   xmlns:sodipodi="http://sodipodi.sourceforge.net/DTD/sodipodi-0.dtd"
   xmlns="http://www.w3.org/2000/svg"
   xmlns:svg="http://www.w3.org/2000/svg"><defs
     id="defs1"><inkscape:path-effect
       effect="fillet_chamfer"
       id="path-effect5"
       is_visible="true"
       lpeversion="1"
       nodesatellites_param="F,0,0,1,0,6.8359375,0,1 @ F,0,0,1,0,7.3828117,0,1 @ F,0,0,1,0,7.1874999,0,1 @ F,0,0,1,0,6.0156242,0,1"
       radius="0"
       unit="px"
       method="auto"
       mode="F"
       chamfer_steps="1"
       flexible="false"
       use_knot_distance="true"
       apply_no_radius="true"
       apply_with_radius="true"
       only_selected="false"
       hide_knots="false" /><inkscape:path-effect
       effect="fillet_chamfer"
       id="path-effect4"
       is_visible="true"
       lpeversion="1"
       nodesatellites_param="F,0,0,1,0,50.546874,0,1 @ F,0,0,1,0,51.328125,0,1 @ F,0,0,1,0,52.109374,0,1 @ F,0,0,1,0,47.421875,0,1"
       radius="0"
       unit="px"
       method="auto"
       mode="F"
       chamfer_steps="1"
       flexible="false"
       use_knot_distance="true"
       apply_no_radius="true"
       apply_with_radius="true"
       only_selected="false"
       hide_knots="false" /><inkscape:path-effect
       effect="fillet_chamfer"
       id="path-effect3"
       is_visible="true"
       lpeversion="1"
       nodesatellites_param="F,0,0,1,0,0,0,1 @ F,0,0,1,0,0,0,1 @ F,0,0,1,0,21.921396,0,1 @ F,0,0,1,0,24.06986,0,1"
       radius="0"
       unit="px"
       method="auto"
       mode="F"
       chamfer_steps="1"
       flexible="false"
       use_knot_distance="true"
       apply_no_radius="true"
       apply_with_radius="true"
       only_selected="false"
       hide_knots="false" /><inkscape:path-effect
       effect="fillet_chamfer"
       id="path-effect2"
       is_visible="true"
       lpeversion="1"
       nodesatellites_param="F,0,0,1,0,0,0,1 @ F,0,0,1,0,93.138464,0,1 @ F,0,0,1,0,60.21456,0,1 @ F,0,0,1,0,0,0,1 @ F,0,1,1,0,60.21456,0,1 @ F,0,0,1,0,0,0,1 @ F,0,0,1,0,0,0,1 @ F,0,0,1,0,35.63155,0,1 @ F,0,0,1,0,0,0,1 @ F,0,0,1,0,0,0,1 @ F,0,0,1,0,0,0,1"
       radius="0"
       unit="px"
       method="auto"
       mode="F"
       chamfer_steps="1"
       flexible="false"
       use_knot_distance="true"
       apply_no_radius="true"
       apply_with_radius="true"
       only_selected="false"
       hide_knots="false" /></defs><sodipodi:namedview
     id="namedview1"
     pagecolor="#ffffff"
     bordercolor="#999999"
     borderopacity="1"
     inkscape:showpageshadow="2"
     inkscape:pageopacity="0"
     inkscape:pagecheckerboard="0"
     inkscape:deskcolor="#d1d1d1"
     showgrid="true"
     inkscape:zoom="0.64"
     inkscape:cx="272.65625"
     inkscape:cy="296.875"
     inkscape:window-width="1366"
     inkscape:window-height="768"
     inkscape:window-x="0"
     inkscape:window-y="0"
     inkscape:window-maximized="1"
     inkscape:current-layer="layer3"><inkscape:grid
       id="grid1"
       units="px"
       originx="0"
       originy="0"
       spacingx="1"
       spacingy="1"
       empcolor="#0099e5"
       empopacity="0.30196078"
       color="#0099e5"
       opacity="0.14901961"
       empspacing="5"
       dotted="false"
       gridanglex="30"
       gridanglez="30"
       visible="true" /></sodipodi:namedview><g
     inkscape:groupmode="layer"
     id="layer3"
     inkscape:label="Layer 1"
     style="opacity:1;fill:#000000"><path
       d="M 276.37918,260.231 A 63.283186,63.283186 0 0 0 213.096,323.51418 v 99.37514 a 59.37078,59.37078 0 0 0 59.37077,59.37079 h 28.95181 a 65.239389,65.239389 0 0 0 65.2394,-65.2394 V 324.49228 A 64.261289,64.261289 0 0 0 302.39668,260.231 Z m 13.98686,39.12407 a 8.6760706,8.6760706 0 0 1 8.06934,9.24306 V 434.1375 a 8.9985365,8.9985365 0 0 1 -8.99854,8.99854 h -0.0978 a 7.5313829,7.5313829 0 0 1 -7.53139,-7.53139 V 307.91346 a 8.5583908,8.5583908 0 0 1 8.55839,-8.55839 z"
       style="display:inline;opacity:1;stroke-width:1.9827;fill:#000000"
       id="path5" /><path
       d="m 446.59335,260.65158 c -34.95034,0 -63.28319,28.33284 -63.28319,63.28319 v 99.37514 c 0,32.78958 26.58121,59.37078 59.37079,59.37078 h 28.95181 c 36.03072,0 63.68324,-29.20868 63.68324,-65.23939 v -29.56802 h -62.68963 v 43.3996 c 0,4.96976 -3.34353,12.28374 -10.46098,12.28374 -7.11744,0 -10.14356,-8.21327 -10.14356,-12.37274 V 310.0631 c 0,-4.72667 3.64915,-10.28744 9.42292,-10.28744 5.04146,0 8.307,5.67271 8.41516,10.97211 v 33.85679 h 65.45611 v -19.69169 c 0,-35.49053 -27.2146,-64.26129 -62.70513,-64.26129 z"
       style="display:inline;opacity:1;stroke-width:1.9827;fill:#000000"
       id="path6"
       sodipodi:nodetypes="ssssssccscscscccsss" /><path
       style="opacity:1;fill:#000000;stroke-width:1.96685"
       d="m 552.2528,216.09415 h 67.85581 v 109.18062 l 19.92883,-61.25362 h 54.52918 l -27.14233,85.5839 35.70071,129.35396 h -62.59852 l -19.80655,-89.61857 v 89.61857 h -68.22261 z"
       id="path7" /><path
       d="M 136.78098,215.60205 35.614995,215.81393 35.45304,480.92268 h 70.6593 l -0.32505,-120.99242 a 20.954236,21.00677 0 0 1 20.95498,21.00636 v 100.47429 l 64.8118,-0.16351 V 376.70266 a 35.411035,35.499815 0 0 0 -35.4112,-35.49998 h -0.16311 a 35.456935,35.545828 0 0 0 35.45715,-35.49998 l 0.0459,-35.30425 a 54.588209,54.725067 0 0 0 -54.70187,-54.7964 z m -30.18165,44.1706 5.51442,0.0909 a 14.204248,14.864671 0 0 1 13.9784,14.86325 v 27.38668 a 12.602543,13.188496 0 0 1 -12.60239,13.18788 h -6.89043 z"
       style="display:inline;opacity:1;fill:#000000;stroke-width:0.925032"
       id="path4" /></g></svg>
